<svg xmlns="http://www.w3.org/2000/svg" width="32" height="32" fill="none" viewBox="0 0 32 32"><path fill="#04A4FC" d="M14.2383 0.337555C12.736 2.49372 14.2281 8.19431 14.5548 10.7792L15.8204 10.4628C15.4684 7.67748 15.798 2.62051 14.2383 0.337555Z"/><path fill="#04A4FC" d="M18.3521 0.654114L16.1372 10.4629L17.4029 10.7793L19.3013 0.970527L18.3521 0.654114Z"/><path fill="#04A4FC" d="M9.17568 1.9195L12.6562 11.0955L6.64437 3.81798L5.37872 4.13439L11.3906 12.3611L2.84742 6.98211L2.53101 8.24776L11.0742 13.6268L12.6562 11.0955L14.2383 10.7791L10.4413 1.60309L9.17568 1.9195Z"/><path fill="#04A4FC" d="M22.4654 1.91962L17.7192 11.0956C19.9267 11.4297 23.9614 3.62758 22.4654 1.91962Z"/><path fill="#04A4FC" d="M19.3015 12.361C22.1479 11.761 25.5816 7.39789 27.2118 5.08355C24.5568 4.86111 19.9835 9.93118 19.3015 12.361Z"/><path fill="#04A4FC" d="M0.94947 11.0955L0.633057 12.0447C3.30909 13.4492 7.41957 14.7543 10.4419 14.8925C9.62273 12.5369 3.24182 11.5699 0.94947 11.0955Z"/><path fill="#04A4FC" d="M0 15.5255V16.7912H10.1252V15.5255H0Z"/><path fill="#04A4FC" d="M21.1995 16.791L31.3247 16.4746V15.8418C29.3158 15.248 21.9551 14.5145 21.1995 16.791Z"/><path fill="#04A4FC" d="M20.8835 17.4241C21.7048 19.7841 28.0863 20.7472 30.3759 21.221L30.6923 20.9046V20.2718C27.999 18.8582 23.9251 17.5567 20.8835 17.4241Z"/><path fill="#04A4FC" d="M20.5667 18.6896L19.9338 19.9552L28.477 25.3342L28.7934 24.0686L20.5667 18.6896Z"/><path fill="#04A4FC" d="M4.42969 27.2326L4.7461 27.549L12.34 20.9043C10.3012 19.0308 5.27948 25.4103 4.42969 27.2326Z"/><path fill="#04A4FC" d="M20.8835 30.7132H22.1491L18.6686 20.9044H18.985C20.2827 23.4192 23.0506 27.2703 25.6297 28.4983L25.9461 28.1819C24.9227 25.8857 22.4581 22.5955 20.4755 21.0186C19.6302 20.3463 18.0294 20.4981 17.6271 21.6607C16.9126 23.7253 20.2991 28.5777 20.8835 30.7132Z"/><path fill="#04A4FC" d="M12.3398 20.9044C11.4555 23.0283 7.12779 28.5287 8.85923 30.3968L13.6054 21.2208L12.3398 20.9044Z"/><path fill="#04A4FC" d="M13.9222 21.5372L12.3401 31.6624C15.2466 30.8122 13.6355 24.0903 15.8206 22.17C15.8206 24.1951 15.5276 31.0213 17.7191 31.6624C17.7177 29.6256 18.1307 23.6526 16.7611 22.1156C16.206 21.4926 14.6923 21.6208 13.9222 21.5372Z"/></svg>