<svg xmlns="http://www.w3.org/2000/svg" width="40" height="54" fill="none" viewBox="0 0 40 54"><g filter="url(#filter0_d_212_7071)"><path fill="#CE4444" d="M15.897 31.564L20.465 34.1635L11.1888 50L8.52641 44.1472L15.897 31.564Z"/><path fill="#983535" d="M15.897 31.564L11.329 28.9644L2.05288 44.8009L8.52641 44.1472L15.897 31.564Z"/><path fill="#983535" d="M22.4141 31.564L17.8461 34.1635L27.1222 50L29.7846 44.1472L22.4141 31.564Z"/><path fill="#CE4444" d="M22.4141 31.564L26.982 28.9644L36.2582 44.8009L29.7846 44.1472L22.4141 31.564Z"/><path fill="url(#paint0_linear_212_7071)" stroke="#765C00" stroke-width=".277" d="M19.0152 36.2999C27.7755 36.2999 34.8805 29.2995 34.8805 20.66C34.8805 12.0205 27.7755 5.02014 19.0152 5.02014C10.255 5.02014 3.15002 12.0205 3.15002 20.66C3.15002 29.2995 10.255 36.2999 19.0152 36.2999Z"/><ellipse cx="19.015" cy="20.66" fill="#A88300" rx="12.276" ry="12.1"/><mask id="mask0_212_7071" style="mask-type:alpha" width="25" height="26" x="7" y="9" maskUnits="userSpaceOnUse"><ellipse cx="19.671" cy="21.952" fill="#C28B37" rx="12.305" ry="12.128"/></mask><g mask="url(#mask0_212_7071)"><ellipse cx="19.016" cy="20.66" fill="#C09525" rx="12.305" ry="12.128"/></g><path fill="url(#paint1_linear_212_7071)" d="M19.082 12.2224L21.7363 17.4549L27.0449 18.109L23.3997 22.138L24.3906 27.9199L19.082 25.3037L13.7734 27.9199L14.7732 22.138L11.1191 18.109L16.4277 17.4549L19.082 12.2224Z"/><path fill="#fff" d="M3.80929 11.2629L5.53994 7.5086L3.80929 3.7543L7.61816 5.46016L11.427 3.7543L9.69638 7.5086L11.427 11.2629L7.61816 9.55704L3.80929 11.2629Z"/></g><defs><filter id="filter0_d_212_7071" width="37.679" height="49.719" x="1.836" y="3.537" color-interpolation-filters="sRGB" filterUnits="userSpaceOnUse"><feFlood flood-opacity="0" result="BackgroundImageFix"/><feColorMatrix in="SourceAlpha" result="hardAlpha" type="matrix" values="0 0 0 0 0 0 0 0 0 0 0 0 0 0 0 0 0 0 127 0"/><feOffset dx="1.52" dy="1.52"/><feGaussianBlur stdDeviation=".868"/><feComposite in2="hardAlpha" operator="out"/><feColorMatrix type="matrix" values="0 0 0 0 0 0 0 0 0 0 0 0 0 0 0 0 0 0 0.3 0"/><feBlend in2="BackgroundImageFix" mode="normal" result="effect1_dropShadow_212_7071"/><feBlend in="SourceGraphic" in2="effect1_dropShadow_212_7071" mode="normal" result="shape"/></filter><linearGradient id="paint0_linear_212_7071" x1="19.015" x2="19.015" y1="5.159" y2="36.161" gradientUnits="userSpaceOnUse"><stop stop-color="#FFC600"/><stop offset="1" stop-color="#FFDE69"/></linearGradient><linearGradient id="paint1_linear_212_7071" x1="19.082" x2="19.082" y1="12.222" y2="27.92" gradientUnits="userSpaceOnUse"><stop stop-color="#FFFCDD"/><stop offset="1" stop-color="#FFE896"/></linearGradient></defs></svg>