<svg xmlns="http://www.w3.org/2000/svg" width="39" height="51" fill="none" viewBox="0 0 39 51"><g filter="url(#filter0_d_212_7088)"><path fill="#418ED6" d="M14.9985 28.0876L19.6174 30.7543L10.238 47L7.54587 40.996L14.9985 28.0876Z"/><path fill="#2B63A6" d="M14.9985 28.0876L10.3797 25.4209L1.00024 41.6666L7.54587 40.996L14.9985 28.0876Z"/><path fill="#2B63A6" d="M21.5879 28.0876L16.969 30.7543L26.3485 47L29.0406 40.996L21.5879 28.0876Z"/><path fill="#418ED6" d="M21.5879 28.0876L26.2068 25.4209L35.5862 41.6666L29.0406 40.996L21.5879 28.0876Z"/><circle cx="18.286" cy="16.902" r="16.042" fill="#E3E3E3" stroke="#404040" stroke-width=".28"/><circle cx="18.286" cy="16.902" r="12.413" fill="#595959"/><mask id="mask0_212_7088" style="mask-type:alpha" width="26" height="26" x="6" y="5" maskUnits="userSpaceOnUse"><circle cx="18.948" cy="18.227" r="12.442" fill="#C28B37"/></mask><g mask="url(#mask0_212_7088)"><circle cx="18.285" cy="16.902" r="12.442" fill="url(#paint0_linear_212_7088)"/></g><path fill="url(#paint1_linear_212_7088)" d="M18.3528 8.24634L21.0367 13.614L26.4044 14.285L22.7186 18.4181L23.7205 24.3495L18.3528 21.6656L12.9851 24.3495L13.996 18.4181L10.3013 14.285L15.669 13.614L18.3528 8.24634Z"/></g><defs><filter id="filter0_d_212_7088" width="38.099" height="49.793" x=".78" y=".5" color-interpolation-filters="sRGB" filterUnits="userSpaceOnUse"><feFlood flood-opacity="0" result="BackgroundImageFix"/><feColorMatrix in="SourceAlpha" result="hardAlpha" type="matrix" values="0 0 0 0 0 0 0 0 0 0 0 0 0 0 0 0 0 0 127 0"/><feOffset dx="1.537" dy="1.537"/><feGaussianBlur stdDeviation=".878"/><feComposite in2="hardAlpha" operator="out"/><feColorMatrix type="matrix" values="0 0 0 0 0 0 0 0 0 0 0 0 0 0 0 0 0 0 0.3 0"/><feBlend in2="BackgroundImageFix" mode="normal" result="effect1_dropShadow_212_7088"/><feBlend in="SourceGraphic" in2="effect1_dropShadow_212_7088" mode="normal" result="shape"/></filter><linearGradient id="paint0_linear_212_7088" x1="18.285" x2="18.285" y1="4.46" y2="29.343" gradientUnits="userSpaceOnUse"><stop stop-color="#9CA1A3"/><stop offset="1" stop-color="#9CA1A3" stop-opacity="0"/></linearGradient><linearGradient id="paint1_linear_212_7088" x1="18.353" x2="18.353" y1="8.246" y2="24.349" gradientUnits="userSpaceOnUse"><stop stop-color="#F1F5F5"/><stop offset="0" stop-color="#fff"/><stop offset="1" stop-color="#F1F5F5"/></linearGradient></defs></svg>